<svg data-name="Layer 1" xmlns="http://www.w3.org/2000/svg" viewBox="0 0 276.7 50.94"><path fill="#943473" d="M190.16 14.93h6.72v36.01h-6.72z"/><path d="M43.09 0C38 0 35.44 0 32.72.89a10.76 10.76 0 00-6.44 6.47c-.87 2.75-.87 5.33-.87 10.44v.33c0 5.19 0 7.77.87 10.53a10.79 10.79 0 006.44 6.47C35.46 36 38 36 43.09 36h17.79v-6.73h-21.1a14.34 14.34 0 01-4.5-.38 4.67 4.67 0 01-2.79-2.81 15 15 0 01-.38-4.57v-7a14.9 14.9 0 01.38-4.54 4.66 4.66 0 012.79-2.8 14.3 14.3 0 014.5-.38h43.57a14.26 14.26 0 014.48.38 4.67 4.67 0 012.78 2.8 14.77 14.77 0 01.39 4.54v7a14.55 14.55 0 01-.38 4.53 4.68 4.68 0 01-2.78 2.81 14.48 14.48 0 01-4.53.38h-7.9V36H80c5.15 0 7.72 0 10.45-.88a10.8 10.8 0 006.43-6.47c.87-2.76.86-5.34.86-10.44v-.34c0-5.18 0-7.77-.86-10.52A10.77 10.77 0 0090.4.89C87.67 0 85.08 0 80 0z" fill="#6d6e70"/><path d="M54.6 50.94c5.08 0 7.65 0 10.36-.88a10.83 10.83 0 006.45-6.47c.87-2.76.86-5.34.86-10.44v-.34c0-5.18 0-7.77-.86-10.52A10.81 10.81 0 0065 15.82c-2.73-.88-5.29-.89-10.36-.89H36.8v6.75h21.11a14.37 14.37 0 014.5.38 4.64 4.64 0 012.78 2.8 14.77 14.77 0 01.38 4.58v7a14.55 14.55 0 01-.38 4.56 4.66 4.66 0 01-2.78 2.81 14.61 14.61 0 01-4.5.38H14.34a14.5 14.5 0 01-4.48-.38A4.66 4.66 0 017.08 41a14.73 14.73 0 01-.38-4.57v-7a14.55 14.55 0 01.38-4.53 4.64 4.64 0 012.78-2.8 14.38 14.38 0 014.52-.38h7.9v-6.79h-4.55c-5.14 0-7.71 0-10.45.89a10.76 10.76 0 00-6.42 6.47C0 25 0 27.62 0 32.73v.33c0 5.18 0 7.77.86 10.53a10.78 10.78 0 006.42 6.47c2.74.87 5.32.88 10.39.88z" fill="#a6a8ab"/><path d="M167 14.93c-5.08 0-7.65 0-10.37.89a10.76 10.76 0 00-6.44 6.47c-.87 2.75-.86 5.33-.86 10.44v.33c0 5.18 0 7.77.86 10.53a10.79 10.79 0 006.44 6.47c2.74.87 5.3.88 10.37.88h17.73V44.2h-21a14.68 14.68 0 01-4.5-.38 4.7 4.7 0 01-2.85-2.82 15.11 15.11 0 01-.37-4.57v-7a14.93 14.93 0 01.37-4.53 4.68 4.68 0 012.79-2.8 14.3 14.3 0 014.5-.38h21v-6.79z" fill="#ed5338"/><path d="M238 32.72c0-5.11 0-7.7-.88-10.43a10.85 10.85 0 00-6.43-6.5c-2.73-.87-5.29-.86-10.36-.86H220c-5.14 0-7.71 0-10.44.86a10.85 10.85 0 00-6.43 6.5c-.86 2.75-.87 5.33-.87 10.43v18.22h6.69V29.39a14.55 14.55 0 01.38-4.53 4.67 4.67 0 012.78-2.8 14.58 14.58 0 014.54-.38h7a14.37 14.37 0 014.5.38 4.64 4.64 0 012.78 2.8 14.51 14.51 0 01.38 4.53v21.55H238z" fill="#58b947"/><path d="M126.21 14.93c-5.08 0-7.65 0-10.37.89a10.81 10.81 0 00-6.45 6.47c-.86 2.75-.85 5.33-.85 10.44v.33c0 5.18 0 7.77.85 10.53a10.83 10.83 0 006.45 6.47c2.73.87 5.3.88 10.37.88h17.73V44.2h-21a14.65 14.65 0 01-4.5-.38 4.67 4.67 0 01-2.83-2.82 15.11 15.11 0 01-.37-4.57v-.13h28.7v-6.74h-28.7v-.17a14.93 14.93 0 01.37-4.53 4.66 4.66 0 012.79-2.8 14.3 14.3 0 014.5-.38h21v-6.75z" fill="#00a4c7"/><path d="M266.07 50.9h-22.64v-6.76h22.64a3.92 3.92 0 000-7.84h-13.41a10.69 10.69 0 010-21.37H275v6.76h-22.34a3.93 3.93 0 000 7.85h13.41a10.68 10.68 0 010 21.36z" fill="#f99d2a"/></svg>