<svg id="Layer_1" data-name="Layer 1" xmlns="http://www.w3.org/2000/svg" viewBox="0 0 221.64 40.81"><defs><style>.cls-1{fill:#fff}</style></defs><path class="cls-1" d="M152.31 11.96h5.38v28.85h-5.38zM34.51 0c-4.06 0-6.13 0-8.3.71a8.66 8.66 0 00-5.16 5.19c-.7 2.2-.69 4.27-.69 8.36v.27c0 4.15 0 6.22.69 8.42a8.66 8.66 0 005.16 5.19c2.19.7 4.24.71 8.3.71h14.26v-5.41H31.86a11.64 11.64 0 01-3.6-.3A3.71 3.71 0 0126 20.89a11.86 11.86 0 01-.31-3.66v-5.64A11.75 11.75 0 0126 8a3.71 3.71 0 012.23-2.25 11.57 11.57 0 013.6-.3h34.9a11.57 11.57 0 013.59.3A3.73 3.73 0 0172.58 8a11.93 11.93 0 01.3 3.66v5.64a11.82 11.82 0 01-.3 3.63 3.73 3.73 0 01-2.23 2.25 11.71 11.71 0 01-3.62.3h-6.32v5.41H64c4.13 0 6.18 0 8.37-.71A8.62 8.62 0 0077.56 23c.69-2.2.69-4.27.69-8.36v-.27c0-4.15 0-6.22-.69-8.42A8.62 8.62 0 0072.41.71C70.22 0 68.15 0 64.09 0z"/><path class="cls-1" d="M43.73 40.81c4.07 0 6.13 0 8.31-.71a8.68 8.68 0 005.16-5.19c.7-2.2.69-4.27.69-8.36v-.27c0-4.15 0-6.22-.69-8.43a8.67 8.67 0 00-5.2-5.18C49.85 12 47.79 12 43.73 12H29.48v5.4h16.9a11.34 11.34 0 013.61.31 3.74 3.74 0 012.23 2.24 12 12 0 01.3 3.67v5.64a11.82 11.82 0 01-.3 3.63A3.73 3.73 0 0150 35.1a11.61 11.61 0 01-3.61.3h-34.9a11.57 11.57 0 01-3.59-.3 3.73 3.73 0 01-2.23-2.25 11.9 11.9 0 01-.31-3.66v-5.65a11.79 11.79 0 01.31-3.63 3.74 3.74 0 012.23-2.24 11.31 11.31 0 013.62-.31h6.32V12H14.2c-4.12 0-6.18 0-8.37.71a8.64 8.64 0 00-5.14 5.14C0 20.06 0 22.13 0 26.21v.27c0 4.15 0 6.23.69 8.43a8.65 8.65 0 005.14 5.19c2.19.7 4.26.71 8.32.71zM133.75 12c-4.06 0-6.13 0-8.3.71a8.66 8.66 0 00-5.17 5.18c-.69 2.21-.68 4.28-.68 8.36v.27c0 4.15 0 6.23.68 8.43a8.67 8.67 0 005.17 5.19c2.19.7 4.24.71 8.3.71H148V35.4h-16.9a11.71 11.71 0 01-3.61-.3 3.76 3.76 0 01-2.23-2.25 12 12 0 01-.3-3.66v-5.65a11.85 11.85 0 01.3-3.63 3.77 3.77 0 012.23-2.24 11.61 11.61 0 013.61-.31H148V12zm56.88 14.21c0-4.09 0-6.17-.71-8.36a8.67 8.67 0 00-5.14-5.2c-2.19-.7-4.25-.69-8.31-.69h-.26c-4.13 0-6.18 0-8.37.69a8.66 8.66 0 00-5.15 5.2c-.69 2.21-.71 4.28-.71 8.36v14.6h5.37V23.54a11.85 11.85 0 01.3-3.63 3.77 3.77 0 012.23-2.24 11.49 11.49 0 013.64-.31h5.6a11.34 11.34 0 013.61.31 3.74 3.74 0 012.27 2.24 11.78 11.78 0 01.3 3.63v17.27h5.37zM101.09 12c-4.06 0-6.13 0-8.3.71a8.64 8.64 0 00-5.16 5.18c-.7 2.21-.69 4.28-.69 8.36v.27c0 4.15 0 6.23.69 8.43a8.66 8.66 0 005.16 5.19c2.19.7 4.24.71 8.3.71h14.2V35.4H98.44a11.6 11.6 0 01-3.6-.3 3.71 3.71 0 01-2.23-2.25 11.9 11.9 0 01-.31-3.66v-.11h23v-5.4h-23v-.14a11.79 11.79 0 01.31-3.63 3.72 3.72 0 012.23-2.24 11.51 11.51 0 013.6-.31h16.85V12zm112.04 28.77H195v-5.41h18.14a3.15 3.15 0 000-6.29h-10.76a8.56 8.56 0 010-17.11h17.87v5.41h-17.87a3.15 3.15 0 000 6.29h10.75a8.56 8.56 0 010 17.11z"/></svg>